HIERARCHY
ROOT Hips
{
	OFFSET -0.001795 -0.223333 0.028219
	CHANNELS 6 Xposition Yposition Zposition Zrotation Yrotation Xrotation 
	JOINT LeftUpLeg
	{
		OFFSET 0.069520 -0.091406 -0.006815
		CHANNELS 3 Zrotation Yrotation Xrotation
		JOINT LeftLeg
		{
			OFFSET 0.034277 -0.375199 -0.004496
			CHANNELS 3 Zrotation Yrotation Xrotation
			JOINT LeftFoot
			{
				OFFSET -0.013596 -0.397961 -0.043693
				CHANNELS 3 Zrotation Yrotation Xrotation
				JOINT LeftToe
				{
					OFFSET 0.026358 -0.055791 0.119288
					CHANNELS 3 Zrotation Yrotation Xrotation
					End Site
					{
						OFFSET 0.000000 0.000000 0.000000
					}
				}
			}
		}
	}
	JOINT RightUpLeg
	{
		OFFSET -0.067670 -0.090522 -0.004320
		CHANNELS 3 Zrotation Yrotation Xrotation
		JOINT RightLeg
		{
			OFFSET -0.038290 -0.382569 -0.008850
			CHANNELS 3 Zrotation Yrotation Xrotation
			JOINT RightFoot
			{
				OFFSET 0.015774 -0.398415 -0.042312
				CHANNELS 3 Zrotation Yrotation Xrotation
				JOINT RightToe
				{
					OFFSET -0.025372 -0.048144 0.123348
					CHANNELS 3 Zrotation Yrotation Xrotation
					End Site
					{
						OFFSET 0.000000 0.000000 0.000000
					}
				}
			}
		}
	}
	JOINT Spine
	{
		OFFSET -0.002533 0.108963 -0.026696
		CHANNELS 3 Zrotation Yrotation Xrotation
		JOINT Spine1
		{
			OFFSET 0.005487 0.135180 0.001092
			CHANNELS 3 Zrotation Yrotation Xrotation
			JOINT Spine2
			{
				OFFSET 0.001457 0.052922 0.025425
				CHANNELS 3 Zrotation Yrotation Xrotation
				JOINT Neck
				{
					OFFSET -0.002778 0.213870 -0.042857
					CHANNELS 3 Zrotation Yrotation Xrotation
					JOINT Head
					{
						OFFSET 0.005152 0.064970 0.051349
						CHANNELS 3 Zrotation Yrotation Xrotation
						End Site
						{
							OFFSET 0.000000 0.000000 0.000000
						}
					}
				}
				JOINT LeftShoulder
				{
					OFFSET 0.078845 0.121749 -0.034090
					CHANNELS 3 Zrotation Yrotation Xrotation
					JOINT LeftArm
					{
						OFFSET 0.090977 0.030469 -0.008868
						CHANNELS 3 Zrotation Yrotation Xrotation
						JOINT LeftForeArm
						{
							OFFSET 0.259612 -0.012772 -0.027456
							CHANNELS 3 Zrotation Yrotation Xrotation
							JOINT LeftHand
							{
								OFFSET 0.249234 0.008986 -0.001171
								CHANNELS 3 Zrotation Yrotation Xrotation
								End Site
								{
									OFFSET 0.000000 0.000000 0.000000
								}
							}
						}
					}
				}
				JOINT RightShoulder
				{
					OFFSET -0.081759 0.118833 -0.038615
					CHANNELS 3 Zrotation Yrotation Xrotation
					JOINT RightArm
					{
						OFFSET -0.096012 0.032551 -0.009143
						CHANNELS 3 Zrotation Yrotation Xrotation
						JOINT RightForeArm
						{
							OFFSET -0.253742 -0.013329 -0.021401
							CHANNELS 3 Zrotation Yrotation Xrotation
							JOINT RightHand
							{
								OFFSET -0.255298 0.007772 -0.005559
								CHANNELS 3 Zrotation Yrotation Xrotation
								End Site
								{
									OFFSET 0.000000 0.000000 0.000000
								}
							}
						}
					}
				}
			}
		}
	}
}
MOTION
Frames: 15
Frame Time: 0.050000
0.000000 0.944505 0.000000 -2.027206 0.393620 8.186513 5.016959 -0.393572 -4.782672 1.552209 0.192039 -7.483608 1.745944 7.185282 10.867769 0.000000 0.000000 0.000000 -3.114023 0.651019 -7.020026 -0.085208 -0.082914 -2.270993 -2.146026 -8.348432 9.380870 0.000000 0.000000 0.000000 1.077646 0.170663 -4.176460 0.354359 -0.005340 -5.090527 0.423510 -0.019205 5.467367 -0.029454 0.867752 -11.672842 0.000000 0.000000 0.000000 -16.212964 4.095003 -3.619623 -57.530670 -7.062119 -3.473570 -10.489100 -16.217532 2.090705 0.000000 0.000000 0.000000 13.803361 -3.627606 -2.986417 61.784221 5.225655 -3.283223 4.961435 13.669825 0.943198 0.000000 0.000000 0.000000 
0.000265 0.943609 0.000133 -2.355271 -0.885374 8.668084 4.529428 -0.372089 -4.372277 3.083865 0.193831 -8.503337 2.066091 7.643206 11.130251 0.000000 0.000000 0.000000 -3.219761 0.701488 -7.581216 0.198585 -0.104103 -2.217349 -1.412486 -7.022013 9.393036 0.000000 0.000000 0.000000 1.699638 0.190741 -4.502956 -0.618599 0.379377 -4.977369 1.360962 0.346688 5.021321 -1.341940 1.679938 -11.714813 0.000000 0.000000 0.000000 -16.897469 5.471886 -4.327131 -57.233607 -6.682254 -3.580780 -11.814301 -16.746845 2.371433 0.000000 0.000000 0.000000 12.914667 -4.092386 -3.186095 62.242819 4.453210 -3.689818 6.298591 15.113858 1.192388 0.000000 0.000000 0.000000 
0.000505 0.943668 0.000017 -2.047462 -0.593196 8.541538 4.328253 -0.368877 -4.274624 3.088795 0.147838 -7.769933 1.424802 6.413811 10.393736 0.000000 0.000000 0.000000 -3.499548 0.694475 -7.608802 0.282570 -0.097875 -1.863845 -1.910179 -7.909858 9.115130 0.000000 0.000000 0.000000 1.479577 0.168821 -4.121845 -0.605013 0.403591 -6.358623 0.920271 0.010024 5.506264 -1.701120 1.888068 -11.244314 0.000000 0.000000 0.000000 -16.066898 4.820071 -3.840975 -57.769263 -6.696316 -3.652201 -11.085871 -16.268368 2.202290 0.000000 0.000000 0.000000 14.299713 -3.199426 -2.959611 61.037681 4.177000 -3.811577 5.856303 14.762605 1.112689 0.000000 0.000000 0.000000 
0.000678 0.943453 -0.000105 -2.355107 -1.176992 8.970367 4.362875 -0.390083 -4.683720 3.595004 0.142888 -7.989498 1.566438 6.685590 10.760940 0.000000 0.000000 0.000000 -3.556373 0.768311 -8.553610 0.702957 -0.123131 -1.581689 -1.841407 -7.937810 9.471187 0.000000 0.000000 0.000000 1.510550 0.180292 -4.324847 -1.178720 0.622468 -6.152842 1.986613 -0.476314 4.594303 -2.461672 2.280634 -10.645063 0.000000 0.000000 0.000000 -15.500432 5.711087 -4.035891 -59.023580 -6.946889 -3.461924 -10.753052 -15.689638 2.098615 0.000000 0.000000 0.000000 13.487052 -3.160656 -3.023206 60.999243 4.157775 -3.760720 6.911931 14.962282 1.215715 0.000000 0.000000 0.000000 
0.000770 0.943724 -0.000278 -2.216064 -0.936291 8.809703 4.069466 -0.384685 -4.533108 3.844135 0.142230 -8.106694 1.340986 6.398566 10.993943 0.000000 0.000000 0.000000 -3.561745 0.744599 -8.271353 0.438409 -0.111622 -1.887118 -2.024042 -8.312712 9.606078 0.000000 0.000000 0.000000 1.393117 0.182704 -4.365934 -1.014277 0.559432 -6.152834 1.694542 -0.625263 4.591805 -2.725189 2.463605 -10.766465 0.000000 0.000000 0.000000 -15.145411 5.307607 -3.794097 -59.171176 -7.626964 -3.127655 -10.711142 -14.987299 1.990001 0.000000 0.000000 0.000000 13.491228 -3.305338 -3.082436 61.074516 4.537734 -3.571686 7.098697 14.566487 1.201322 0.000000 0.000000 0.000000 
0.000844 0.943927 -0.000420 -2.270921 -1.369920 9.052248 3.955408 -0.396846 -4.750858 4.193422 0.123078 -8.022316 1.575995 6.690610 10.792513 0.000000 0.000000 0.000000 -3.517052 0.771101 -8.552871 0.328919 -0.102439 -1.893663 -1.824372 -7.999704 9.728010 0.000000 0.000000 0.000000 1.184190 0.201356 -4.697286 -1.024777 0.559779 -6.303414 2.094785 -0.585030 4.718916 -2.781533 2.464385 -10.121177 0.000000 0.000000 0.000000 -15.210161 5.752049 -3.973097 -59.411101 -7.932682 -2.980116 -10.540642 -14.784564 1.948798 0.000000 0.000000 0.000000 13.191499 -3.020791 -2.946525 61.053220 4.888333 -3.413105 7.130337 14.823595 1.222339 0.000000 0.000000 0.000000 
0.000883 0.943929 -0.000539 -2.263833 -1.563727 9.069536 3.828707 -0.395426 -4.721684 4.335641 0.130190 -8.193237 1.687239 6.967566 11.232379 0.000000 0.000000 0.000000 -3.380990 0.775791 -8.551730 0.004966 -0.079144 -1.980086 -1.659811 -7.695375 9.721667 0.000000 0.000000 0.000000 1.080687 0.204675 -4.743918 -0.975260 0.535183 -6.194143 2.180234 -0.754535 4.452648 -2.745689 2.426086 -10.463654 0.000000 0.000000 0.000000 -15.266207 5.897228 -4.009373 -59.364964 -7.820403 -3.000152 -10.646900 -14.643952 1.947322 0.000000 0.000000 0.000000 13.242936 -2.786266 -2.896453 60.760378 4.985557 -3.329184 7.381884 15.057423 1.264054 0.000000 0.000000 0.000000 
0.000962 0.943628 -0.000622 -2.331124 -1.868904 9.217976 3.697616 -0.399833 -4.782533 4.518963 0.126837 -8.236750 1.977061 7.362235 11.017551 0.000000 0.000000 0.000000 -3.115681 0.794531 -8.671613 -0.210584 -0.055834 -1.836540 -1.614417 -7.499630 9.242735 0.000000 0.000000 0.000000 0.999269 0.215777 -4.939476 -0.917525 0.505358 -6.034837 2.296192 -0.550880 4.031888 -2.705003 2.390075 -10.160507 0.000000 0.000000 0.000000 -15.080733 6.063060 -4.077781 -59.248470 -7.692009 -3.013714 -10.856845 -14.602033 1.965145 0.000000 0.000000 0.000000 13.354237 -2.836798 -2.944514 60.607174 5.032212 -3.247522 7.355969 15.091853 1.261623 0.000000 0.000000 0.000000 
0.001054 0.943500 -0.000655 -2.347645 -1.944305 9.124300 3.653844 -0.388045 -4.590306 4.572911 0.143300 -8.478867 1.933074 7.315825 11.160809 0.000000 0.000000 0.000000 -3.016585 0.794114 -8.636895 -0.255988 -0.049598 -1.775604 -1.522007 -7.236306 8.962773 0.000000 0.000000 0.000000 0.944849 0.210211 -4.824964 -0.869768 0.486338 -6.130088 2.480562 -0.576743 3.856299 -2.836638 2.467841 -10.099867 0.000000 0.000000 0.000000 -15.027603 6.176930 -4.112973 -59.213942 -7.652039 -3.010893 -11.070340 -14.417718 1.966921 0.000000 0.000000 0.000000 13.442019 -2.857439 -2.989182 60.315335 5.046457 -3.208175 7.207252 15.100358 1.241869 0.000000 0.000000 0.000000 
0.001154 0.943445 -0.000701 -2.324861 -2.090858 9.022786 3.580755 -0.380578 -4.478036 4.636613 0.150478 -8.604281 2.010948 7.401084 11.038348 0.000000 0.000000 0.000000 -2.980037 0.786389 -8.522440 -0.304540 -0.049702 -1.870624 -1.473269 -7.083596 8.743755 0.000000 0.000000 0.000000 0.963323 0.213712 -4.879575 -0.889668 0.490412 -5.940281 2.557653 -0.402161 3.671115 -3.128414 2.662804 -9.944275 0.000000 0.000000 0.000000 -14.900020 6.167769 -4.106253 -59.125658 -7.572344 -3.031240 -11.416288 -14.554625 2.028336 0.000000 0.000000 0.000000 13.575972 -2.833214 -2.990834 59.969498 4.980957 -3.195877 6.963773 15.180970 1.221633 0.000000 0.000000 0.000000 
0.001222 0.943196 -0.000782 -2.298721 -2.169610 8.956570 3.585704 -0.370194 -4.317803 4.739015 0.161555 -8.789184 1.862223 7.158932 11.097212 0.000000 0.000000 0.000000 -3.014895 0.785170 -8.517498 -0.196533 -0.052171 -1.717031 -1.487817 -7.053218 8.531057 0.000000 0.000000 0.000000 0.916693 0.215645 -4.908962 -0.866406 0.479196 -5.879136 2.619876 -0.353556 3.656725 -3.237667 2.733178 -9.794096 0.000000 0.000000 0.000000 -14.923238 6.284175 -4.166926 -58.995887 -7.368900 -3.128492 -11.528637 -14.868449 2.089659 0.000000 0.000000 0.000000 13.622881 -3.080831 -3.115890 59.804247 5.021247 -3.166380 6.900580 14.979635 1.196156 0.000000 0.000000 0.000000 
0.001189 0.942890 -0.000916 -2.330079 -2.242439 8.840401 3.675383 -0.353677 -4.067392 4.668390 0.179982 -9.002386 1.724706 6.885379 10.946904 0.000000 0.000000 0.000000 -2.959048 0.774531 -8.366334 -0.209208 -0.051620 -1.728423 -1.457452 -6.990507 8.507201 0.000000 0.000000 0.000000 0.870844 0.213974 -4.868738 -0.836445 0.464761 -5.768302 2.836281 -0.452073 3.509247 -3.395140 2.828026 -10.013463 0.000000 0.000000 0.000000 -14.835484 6.688281 -4.327583 -58.978131 -6.998925 -3.289594 -11.846857 -15.103483 2.171346 0.000000 0.000000 0.000000 13.577996 -3.194500 -3.195189 59.573369 4.853496 -3.230619 6.564403 14.876424 1.144705 0.000000 0.000000 0.000000 
0.001043 0.942517 -0.001072 -2.347006 -2.289102 8.835732 3.706913 -0.347473 -3.967567 4.740851 0.188138 -9.131657 1.601605 6.666761 10.919020 0.000000 0.000000 0.000000 -2.829613 0.776659 -8.354430 -0.335947 -0.042488 -1.758300 -1.429633 -6.948366 8.534257 0.000000 0.000000 0.000000 0.838538 0.217307 -4.930671 -0.761273 0.432197 -5.672044 2.945718 -0.413640 3.383189 -3.348838 2.795977 -10.041392 0.000000 0.000000 0.000000 -14.952139 6.788281 -4.395347 -58.696547 -6.661661 -3.435449 -11.804716 -15.316168 2.197289 0.000000 0.000000 0.000000 13.658540 -3.406793 -3.312090 59.316778 4.646970 -3.306080 6.374216 14.826285 1.118565 0.000000 0.000000 0.000000 
0.000838 0.942215 -0.001264 -2.357269 -2.446880 8.704210 3.719593 -0.335569 -3.798239 4.828873 0.194792 -9.250576 1.421858 6.340530 10.888538 0.000000 0.000000 0.000000 -2.666378 0.755726 -8.047498 -0.474563 -0.043132 -2.030929 -1.429509 -6.982120 8.590211 0.000000 0.000000 0.000000 0.802586 0.214345 -4.857222 -0.700428 0.404203 -5.588715 3.094445 -0.349328 3.258938 -3.119968 2.638590 -9.993486 0.000000 0.000000 0.000000 -14.983253 6.970277 -4.484308 -58.430338 -6.408115 -3.536194 -11.717344 -15.237236 2.174058 0.000000 0.000000 0.000000 13.692852 -3.382818 -3.316920 59.064896 4.415251 -3.395273 5.928757 14.768959 1.063490 0.000000 0.000000 0.000000 
0.000658 0.941921 -0.001460 -2.375074 -2.409595 8.672342 3.690497 -0.332430 -3.743575 4.896347 0.205127 -9.400119 1.276671 6.128954 10.995991 0.000000 0.000000 0.000000 -2.570718 0.742569 -7.865030 -0.580083 -0.047797 -2.325826 -1.439895 -7.048539 8.742997 0.000000 0.000000 0.000000 0.776502 0.216864 -4.908768 -0.730193 0.417740 -5.652198 3.168995 -0.350382 3.390641 -2.896471 2.497537 -10.311493 0.000000 0.000000 0.000000 -14.948442 7.022169 -4.502897 -58.207413 -6.182235 -3.650378 -11.628437 -15.116095 2.144662 0.000000 0.000000 0.000000 13.623612 -3.694431 -3.448359 59.044556 4.277684 -3.480202 5.743654 14.505265 1.023493 0.000000 0.000000 0.000000 
